<?xml version="1.0" encoding="UTF-8" standalone="no"?>
<!-- Created with Inkscape (http://www.inkscape.org/) -->

<svg
   xmlns:dc="http://purl.org/dc/elements/1.1/"
   xmlns:cc="http://creativecommons.org/ns#"
   xmlns:rdf="http://www.w3.org/1999/02/22-rdf-syntax-ns#"
   xmlns:svg="http://www.w3.org/2000/svg"
   xmlns="http://www.w3.org/2000/svg"
   xmlns:sodipodi="http://sodipodi.sourceforge.net/DTD/sodipodi-0.dtd"
   xmlns:inkscape="http://www.inkscape.org/namespaces/inkscape"
   version="1.0"
   width="128"
   height="128"
   id="svg2"
   inkscape:version="0.47pre4 r22446"
   sodipodi:docname="ogre.svg">
  <metadata
     id="metadata33">
    <rdf:RDF>
      <cc:Work
         rdf:about="">
        <dc:format>image/svg+xml</dc:format>
        <dc:type
           rdf:resource="http://purl.org/dc/dcmitype/StillImage" />
      </cc:Work>
    </rdf:RDF>
  </metadata>
  <sodipodi:namedview
     pagecolor="#000000"
     bordercolor="#666666"
     borderopacity="1"
     objecttolerance="10"
     gridtolerance="10"
     guidetolerance="10"
     inkscape:pageopacity="1"
     inkscape:pageshadow="2"
     inkscape:window-width="1920"
     inkscape:window-height="1347"
     id="namedview31"
     showgrid="false"
     inkscape:zoom="5.2149125"
     inkscape:cx="7.3590433"
     inkscape:cy="30.480753"
     inkscape:window-x="-4"
     inkscape:window-y="-2"
     inkscape:window-maximized="1"
     inkscape:current-layer="svg2" />
  <defs
     id="defs4">
    <inkscape:perspective
       sodipodi:type="inkscape:persp3d"
       inkscape:vp_x="0 : 32 : 1"
       inkscape:vp_y="0 : 1000 : 0"
       inkscape:vp_z="64 : 32 : 1"
       inkscape:persp3d-origin="32 : 21.333333 : 1"
       id="perspective35" />
    <filter
       inkscape:collect="always"
       id="filter4424"
       x="-0.11909295"
       width="1.2381859"
       y="-0.12091395"
       height="1.2418279">
      <feGaussianBlur
         inkscape:collect="always"
         stdDeviation="3.1591183"
         id="feGaussianBlur4426" />
    </filter>
  </defs>
  <path
     sodipodi:type="arc"
     style="fill:#ffffff;fill-opacity:1;stroke:none;filter:url(#filter4424)"
     id="path4385"
     sodipodi:cx="32.023548"
     sodipodi:cy="31.3053"
     sodipodi:rx="31.831791"
     sodipodi:ry="31.352396"
     d="m 63.855339,31.3053 a 31.831791,31.352396 0 1 1 -63.6635818,0 31.831791,31.352396 0 1 1 63.6635818,0 z"
     transform="matrix(1.6238019,0,0,1.6437956,12.000102,12.540486)" />
  <path
     style="fill:#000000;fill-opacity:1"
     d="m 61.6875,12.499676 -4.1875,1.5 c -7.256358,2.599172 -7.834578,2.954692 -11,6.8125 -1.648302,2.008848 -4.269418,4.547244 -5.8125,5.6875 -2.570244,1.899272 -3.016504,2.621488 -5.75,8.3125 -1.817408,3.78376 -3.13646,7.1383 -3.3125,8.625 -0.479806,4.052322 -0.742456,4.115036 -4.25,0.75 -4.393618,-4.215106 -4.764394,-4.396548 -8.0625,-3.4375 -1.491447,0.433696 -2.924358,1.044074 -3.1875,1.375 -0.263142,0.330928 -0.90353,5.109262 -1.375,10.625 l -0.6875,8.5 -0.0625,0.5 0,0.0625 -0.0625,1 3.875,8.9375 c 2.154916,4.90916 4.34414,9.147 4.8125,9.4375 0.659698,0.4092 1.590832,0.12952 4.3125,-1.1875 1.93228,-0.93504 3.67172,-1.5783 3.8125,-1.4375 0.14079,0.14082 0.01484,1.95886 -0.25,4 -0.711138,5.48066 -0.66041,6.19838 0.75,7.875 0.707002,0.84046 1.21574,1.75198 1.0625,2 -0.15324,0.248 -1.827864,1.08792 -3.6875,1.875 -1.859638,0.78708 -5.850874,2.88152 -8.875,4.6875 -3.024125,1.805964 -7.919181,4.709984 -10.875,6.437504 -3.1500392,1.84104 -6.100006,3.9897 -7.125,5.1875 l -1.75,2.0625 0,7.625 0,7.6875 24.0625,0 26.4375,0 13.5,0 c 1.991338,0.001 3.206456,0 5.25,0 l 58.6875,0 0.0625,0 -0.0625,-6.4375 0,-6.1875 c -0.001,-1.0828 0.006,-1.81978 0,-2.75 l 0.0625,0.0625 -0.0625,-2.5625 0,-0.6875 c -0.0117,-0.78772 -0.0451,-1.2902 -0.0625,-1.9375 l -0.0625,-1.1875 c 0.005,-0.0241 -0.005,-0.036 0,-0.0625 0.007,-0.0397 0.0564,-0.0175 0.0625,-0.0625 0.0909,-0.66972 0.0463,-1.30834 0,-1.875 0.0593,-0.5566 0.0181,-1.01986 -0.1875,-1.375 l 0,-0.625 -0.3125,-0.25 c -0.0192,-0.0381 -0.0421,-0.0982 -0.0625,-0.125 -0.34591,-0.45484 -5.51431,-3.548524 -11.4375,-6.875004 -7.50035,-4.2122 -11.55246,-6.24556 -13.4375,-6.625 l -2.6875,-0.5 -0.0625,-5.75 c 0.03794,-1.21014 0.0059,-2.57692 -0.0625,-4.0625 -0.01105,-3.93616 0.08637,-7.134962 0.25,-7.125 0.18395,0.01118 1.11066,0.686196 2.0625,1.5 1.82492,1.5603 3.60266,1.91812 4.4375,0.875 0.27511,-0.34376 1.10572,-4.973156 1.875,-10.25 l 1.375,-9.5625 -1.6875,-9.875 c -1.51119,-8.713918 -1.86162,-9.898326 -2.875,-10.5625 -0.87572,-0.57395 -1.64719,-0.651048 -3.25,-0.3125 -1.72138,0.363594 -2.393296,0.90781 -4,3.0625 l -2,2.625 -1.125,-2.375 c -0.621666,-1.305536 -2.2291,-4.128844 -3.5625,-6.25 -2.258586,-3.592926 -2.921352,-4.215286 -9.9375,-9.25 l -7.5,-5.375 -6,-1.375 -6,-1.375 z"
     id="path2541" />
</svg>
